<svg width="23" height="24" viewBox="0 0 23 24" fill="none" xmlns="http://www.w3.org/2000/svg">
<path fill-rule="evenodd" clip-rule="evenodd" d="M3.18662 9.49992L10.7628 1.92378L11.7056 2.86659L4.12943 10.4427L3.18662 9.49992Z" fill="#3369F3"/>
<path fill-rule="evenodd" clip-rule="evenodd" d="M5.70068 12.014L13.2768 4.43784L14.2196 5.38065L6.64349 12.9568L5.70068 12.014Z" fill="#3369F3"/>
<path fill-rule="evenodd" clip-rule="evenodd" d="M11.0433 17.3566L18.6195 9.78047L19.5623 10.7233L11.9861 18.2994L11.0433 17.3566Z" fill="#3369F3"/>
<path fill-rule="evenodd" clip-rule="evenodd" d="M13.5574 19.8707L21.1335 12.2945L22.0763 13.2373L14.5002 20.8135L13.5574 19.8707Z" fill="#3369F3"/>
<path fill-rule="evenodd" clip-rule="evenodd" d="M13.5574 19.8707C10.9423 22.4858 6.71181 22.4953 4.10831 19.8918C1.50482 17.2883 1.51431 13.0578 4.12943 10.4427L3.18662 9.49992C0.0484772 12.6381 0.0371022 17.7147 3.1613 20.8389C6.28549 23.963 11.362 23.9516 14.5002 20.8135L13.5574 19.8707Z" fill="#3369F3"/>
<path fill-rule="evenodd" clip-rule="evenodd" d="M18.6195 9.78047L19.5623 10.7233C22.003 8.2825 22.0118 4.33402 19.5819 1.90409C17.152 -0.525842 13.2035 -0.516999 10.7628 1.92378L11.7056 2.86659C13.6233 0.948834 16.7257 0.941875 18.6349 2.85111C20.5441 4.76034 20.5372 7.86272 18.6195 9.78047Z" fill="#3369F3"/>
<path fill-rule="evenodd" clip-rule="evenodd" d="M5.70068 12.014C3.95727 13.7574 3.95123 16.5781 5.68689 18.3137C7.42256 20.0494 10.2427 20.0428 11.9861 18.2994L11.0433 17.3566C9.82292 18.577 7.84888 18.5817 6.63391 17.3667C5.41895 16.1518 5.4231 14.1772 6.64349 12.9568L5.70068 12.014Z" fill="#3369F3"/>
</svg>
